<svg width="262" height="262" viewBox="0 0 262 262" fill="none" xmlns="http://www.w3.org/2000/svg">
<circle cx="131" cy="131" r="25.5" stroke="#AECFD3" stroke-width="15"/>
<circle cx="131" cy="131" r="57.5" stroke="#AECFD3" stroke-width="15"/>
<path d="M216.842 159.66C212.48 172.724 205.195 184.62 195.54 194.441C185.886 204.263 174.117 211.752 161.13 216.337C148.144 220.922 134.282 222.483 120.6 220.901C106.919 219.318 93.7799 214.634 82.183 207.205C70.5861 199.776 60.8377 189.798 53.6804 178.031C46.5232 166.265 42.1459 153.02 40.8819 139.306C39.618 125.591 41.5008 111.769 46.3868 98.893C51.2729 86.0164 59.0334 74.4249 69.0771 65.0015" stroke="#6F8970" stroke-width="15" stroke-linecap="round" stroke-linejoin="round"/>
<path d="M88.5004 51.0999C102.117 43.8572 117.358 40.2145 132.778 40.5175C148.198 40.8204 163.284 45.059 176.605 52.8309C189.927 60.6028 201.041 71.6502 208.893 84.9244C216.745 98.1986 221.074 113.259 221.47 128.677" stroke="#6F8970" stroke-width="15" stroke-linecap="round" stroke-linejoin="round"/>
<path d="M134.7 7.55543C157.91 8.25109 180.455 15.4764 199.745 28.4022C219.036 41.3279 234.292 59.4305 243.762 80.6326C253.233 101.835 256.534 125.277 253.287 148.27C250.039 171.263 240.376 192.874 225.404 210.625" stroke="#CDAFA0" stroke-width="15" stroke-linecap="round" stroke-linejoin="round"/>
<path d="M194.482 236.936C178.025 246.797 159.496 252.689 140.366 254.144C121.235 255.599 102.029 252.577 84.27 245.318C66.5108 238.058 50.6872 226.761 38.0539 212.322C25.4206 197.883 16.325 180.699 11.4885 162.133C6.65206 143.567 6.20764 124.129 10.1905 105.362C14.1734 86.5941 22.474 69.0125 34.4342 54.0111C46.3943 39.0097 61.6851 27.001 79.0939 18.9375C96.5027 10.8739 115.551 6.97717 134.728 7.55627" stroke="#6F8970" stroke-width="15" stroke-linecap="round" stroke-linejoin="round"/>
</svg>
